<svg width="504" height="144" viewBox="0 0 504 144" fill="none" xmlns="http://www.w3.org/2000/svg">
<g clip-path="url(#clip0_1_2)">
<path d="M44.008 118H35.368V57.04H13.96V49.456H65.32V57.04H44.008V118ZM86.3043 65.68C92.5763 65.68 97.2163 67.056 100.224 69.808C103.232 72.56 104.736 76.944 104.736 82.96V118H98.5923L96.9603 110.704H96.5763C95.1043 112.56 93.5683 114.128 91.9683 115.408C90.4323 116.624 88.6403 117.52 86.5923 118.096C84.6083 118.672 82.1763 118.96 79.2963 118.96C76.2243 118.96 73.4403 118.416 70.9443 117.328C68.5123 116.24 66.5923 114.576 65.1843 112.336C63.7763 110.032 63.0723 107.152 63.0723 103.696C63.0723 98.576 65.0883 94.64 69.1203 91.888C73.1523 89.072 79.3603 87.536 87.7443 87.28L96.4803 86.992V83.92C96.4803 79.632 95.5523 76.656 93.6963 74.992C91.8403 73.328 89.2163 72.496 85.8243 72.496C83.1363 72.496 80.5763 72.912 78.1443 73.744C75.7123 74.512 73.4403 75.408 71.3282 76.432L68.7363 70.096C70.9763 68.88 73.6323 67.856 76.7043 67.024C79.7763 66.128 82.9763 65.68 86.3043 65.68ZM88.8003 93.136C82.4003 93.392 77.9523 94.416 75.4563 96.208C73.0243 98 71.8083 100.528 71.8083 103.792C71.8083 106.672 72.6723 108.784 74.4003 110.128C76.1923 111.472 78.4643 112.144 81.2163 112.144C85.5683 112.144 89.1843 110.96 92.0643 108.592C94.9443 106.16 96.3843 102.448 96.3843 97.456V92.848L88.8003 93.136ZM128.981 83.152C128.981 84.176 128.917 85.52 128.789 87.184C128.725 88.848 128.661 90.288 128.597 91.504H128.981C129.365 90.992 129.941 90.256 130.709 89.296C131.477 88.336 132.245 87.376 133.013 86.416C133.845 85.392 134.549 84.56 135.125 83.92L151.541 66.544H161.429L140.597 88.528L162.869 118H152.693L134.837 94L128.981 99.088V118H120.629V45.04H128.981V83.152ZM191.782 65.584C196.198 65.584 199.974 66.544 203.11 68.464C206.31 70.384 208.742 73.104 210.406 76.624C212.134 80.08 212.998 84.144 212.998 88.816V93.904H177.766C177.894 99.728 179.366 104.176 182.182 107.248C185.062 110.256 189.062 111.76 194.182 111.76C197.446 111.76 200.326 111.472 202.822 110.896C205.382 110.256 208.006 109.36 210.694 108.208V115.6C208.07 116.752 205.478 117.584 202.918 118.096C200.358 118.672 197.318 118.96 193.798 118.96C188.934 118.96 184.614 117.968 180.838 115.984C177.126 114 174.214 111.056 172.102 107.152C170.054 103.184 169.03 98.352 169.03 92.656C169.03 87.024 169.958 82.192 171.814 78.16C173.734 74.128 176.39 71.024 179.782 68.848C183.238 66.672 187.238 65.584 191.782 65.584ZM191.686 72.496C187.654 72.496 184.454 73.808 182.086 76.432C179.782 78.992 178.406 82.576 177.958 87.184H204.166C204.166 84.24 203.718 81.68 202.822 79.504C201.926 77.328 200.55 75.632 198.694 74.416C196.902 73.136 194.566 72.496 191.686 72.496ZM281.586 118H271.506L234.834 61.072H234.45C234.514 62.224 234.578 63.504 234.642 64.912C234.77 66.32 234.866 67.856 234.93 69.52C234.994 71.12 235.058 72.784 235.122 74.512C235.186 76.24 235.218 77.968 235.218 79.696V118H227.25V49.456H237.234L273.81 106.192H274.194C274.13 105.424 274.066 104.368 274.002 103.024C273.938 101.616 273.874 100.08 273.81 98.416C273.746 96.688 273.682 94.928 273.618 93.136C273.554 91.344 273.522 89.68 273.522 88.144V49.456H281.586V118ZM343.771 92.176C343.771 96.464 343.195 100.272 342.043 103.6C340.955 106.864 339.355 109.648 337.243 111.952C335.195 114.256 332.667 116.016 329.659 117.232C326.715 118.384 323.419 118.96 319.771 118.96C316.379 118.96 313.243 118.384 310.363 117.232C307.483 116.016 304.987 114.256 302.875 111.952C300.763 109.648 299.099 106.864 297.883 103.6C296.731 100.272 296.155 96.464 296.155 92.176C296.155 86.48 297.115 81.68 299.035 77.776C300.955 73.808 303.707 70.8 307.291 68.752C310.875 66.64 315.131 65.584 320.059 65.584C324.731 65.584 328.827 66.64 332.347 68.752C335.931 70.8 338.715 73.808 340.699 77.776C342.747 81.68 343.771 86.48 343.771 92.176ZM304.891 92.176C304.891 96.208 305.403 99.728 306.427 102.736C307.515 105.68 309.179 107.952 311.419 109.552C313.659 111.152 316.507 111.952 319.963 111.952C323.419 111.952 326.267 111.152 328.507 109.552C330.747 107.952 332.379 105.68 333.403 102.736C334.491 99.728 335.035 96.208 335.035 92.176C335.035 88.08 334.491 84.592 333.403 81.712C332.315 78.832 330.651 76.624 328.411 75.088C326.235 73.488 323.387 72.688 319.867 72.688C314.619 72.688 310.811 74.416 308.443 77.872C306.075 81.328 304.891 86.096 304.891 92.176ZM374.344 112.048C375.624 112.048 376.936 111.952 378.28 111.76C379.624 111.504 380.712 111.248 381.544 110.992V117.424C380.648 117.872 379.368 118.224 377.704 118.48C376.04 118.8 374.44 118.96 372.904 118.96C370.216 118.96 367.72 118.512 365.416 117.616C363.176 116.656 361.352 115.024 359.944 112.72C358.536 110.416 357.832 107.184 357.832 103.024V73.072H350.536V69.04L357.928 65.68L361.288 54.736H366.28V66.544H381.16V73.072H366.28V102.832C366.28 105.968 367.016 108.304 368.488 109.84C370.024 111.312 371.976 112.048 374.344 112.048ZM411.72 65.584C416.136 65.584 419.912 66.544 423.048 68.464C426.248 70.384 428.68 73.104 430.344 76.624C432.072 80.08 432.936 84.144 432.936 88.816V93.904H397.704C397.832 99.728 399.304 104.176 402.12 107.248C405 110.256 409 111.76 414.12 111.76C417.384 111.76 420.264 111.472 422.76 110.896C425.32 110.256 427.944 109.36 430.632 108.208V115.6C428.008 116.752 425.416 117.584 422.856 118.096C420.296 118.672 417.256 118.96 413.736 118.96C408.872 118.96 404.552 117.968 400.776 115.984C397.064 114 394.152 111.056 392.04 107.152C389.992 103.184 388.968 98.352 388.968 92.656C388.968 87.024 389.896 82.192 391.752 78.16C393.672 74.128 396.328 71.024 399.72 68.848C403.176 66.672 407.176 65.584 411.72 65.584ZM411.624 72.496C407.592 72.496 404.392 73.808 402.024 76.432C399.72 78.992 398.344 82.576 397.896 87.184H424.104C424.104 84.24 423.656 81.68 422.76 79.504C421.864 77.328 420.488 75.632 418.632 74.416C416.84 73.136 414.504 72.496 411.624 72.496Z" fill="white"/>
<path d="M44.008 118V119.5H45.508V118H44.008ZM35.368 118H33.868V119.5H35.368V118ZM35.368 57.04H36.868V55.54H35.368V57.04ZM13.96 57.04H12.46V58.54H13.96V57.04ZM13.96 49.456V47.956H12.46V49.456H13.96ZM65.32 49.456H66.82V47.956H65.32V49.456ZM65.32 57.04V58.54H66.82V57.04H65.32ZM44.008 57.04V55.54H42.508V57.04H44.008ZM44.008 116.5H35.368V119.5H44.008V116.5ZM36.868 118V57.04H33.868V118H36.868ZM35.368 55.54H13.96V58.54H35.368V55.54ZM15.46 57.04V49.456H12.46V57.04H15.46ZM13.96 50.956H65.32V47.956H13.96V50.956ZM63.82 49.456V57.04H66.82V49.456H63.82ZM65.32 55.54H44.008V58.54H65.32V55.54ZM42.508 57.04V118H45.508V57.04H42.508ZM100.224 69.808L101.237 68.7013L101.237 68.7013L100.224 69.808ZM104.736 118V119.5H106.236V118H104.736ZM98.5923 118L97.1284 118.327L97.3907 119.5H98.5923V118ZM96.9603 110.704L98.4241 110.377L98.1618 109.204H96.9603V110.704ZM96.5763 110.704V109.204H95.8514L95.401 109.772L96.5763 110.704ZM91.9683 115.408L92.8993 116.584L92.9053 116.579L91.9683 115.408ZM86.5923 118.096L86.1861 116.652L86.174 116.655L86.5923 118.096ZM70.9443 117.328L70.3317 118.697L70.3383 118.7L70.3449 118.703L70.9443 117.328ZM65.1843 112.336L63.9043 113.118L63.9093 113.126L63.9143 113.134L65.1843 112.336ZM69.1203 91.888L69.9659 93.1269L69.9725 93.1224L69.9791 93.1178L69.1203 91.888ZM87.7443 87.28L87.79 88.7793L87.7937 88.7792L87.7443 87.28ZM96.4803 86.992L96.5297 88.4912L97.9803 88.4434V86.992H96.4803ZM93.6963 74.992L92.6949 76.1089L92.6949 76.1089L93.6963 74.992ZM78.1443 73.744L78.5959 75.1744L78.6129 75.169L78.6298 75.1632L78.1443 73.744ZM71.3282 76.432L69.9399 76.9999L70.5449 78.4788L71.9827 77.7817L71.3282 76.432ZM68.7363 70.096L68.0206 68.7777L66.8388 69.4193L67.3479 70.6639L68.7363 70.096ZM76.7043 67.024L77.0964 68.4718L77.1104 68.4681L77.1243 68.464L76.7043 67.024ZM88.8003 93.136L88.7433 91.6371L88.7403 91.6372L88.8003 93.136ZM75.4563 96.208L74.5814 94.9895L74.5739 94.9949L74.5665 95.0004L75.4563 96.208ZM74.4003 110.128L73.4793 111.312L73.4897 111.32L73.5003 111.328L74.4003 110.128ZM92.0643 108.592L93.0169 109.751L93.0245 109.744L93.032 109.738L92.0643 108.592ZM96.3843 92.848H97.8843V91.29L96.3273 91.3491L96.3843 92.848ZM86.3043 67.18C92.3963 67.18 96.5965 68.522 99.2117 70.9147L101.237 68.7013C97.836 65.59 92.7562 64.18 86.3043 64.18V67.18ZM99.2117 70.9147C101.786 73.2701 103.236 77.163 103.236 82.96H106.236C106.236 76.725 104.678 71.8499 101.237 68.7013L99.2117 70.9147ZM103.236 82.96V118H106.236V82.96H103.236ZM104.736 116.5H98.5923V119.5H104.736V116.5ZM100.056 117.673L98.4241 110.377L95.4964 111.031L97.1284 118.327L100.056 117.673ZM96.9603 109.204H96.5763V112.204H96.9603V109.204ZM95.401 109.772C93.9885 111.553 92.5306 113.037 91.0312 114.237L92.9053 116.579C94.6059 115.219 96.22 113.567 97.7515 111.636L95.401 109.772ZM91.0372 114.232C89.6697 115.315 88.0597 116.125 86.1861 116.652L86.9984 119.54C89.2208 118.915 91.1948 117.933 92.8993 116.584L91.0372 114.232ZM86.174 116.655C84.3676 117.18 82.0859 117.46 79.2963 117.46V120.46C82.2666 120.46 84.8489 120.164 87.0105 119.537L86.174 116.655ZM79.2963 117.46C76.4041 117.46 73.8277 116.949 71.5436 115.953L70.3449 118.703C73.0528 119.883 76.0444 120.46 79.2963 120.46V117.46ZM71.5568 115.959C69.3935 114.991 67.7032 113.525 66.4542 111.538L63.9143 113.134C65.4813 115.627 67.631 117.489 70.3317 118.697L71.5568 115.959ZM66.4642 111.554C65.2352 109.543 64.5723 106.952 64.5723 103.696H61.5723C61.5723 107.352 62.3173 110.521 63.9043 113.118L66.4642 111.554ZM64.5723 103.696C64.5723 99.0429 66.3666 95.5836 69.9659 93.1269L68.2746 90.6491C63.8099 93.6964 61.5723 98.1091 61.5723 103.696H64.5723ZM69.9791 93.1178C73.6568 90.5492 79.5149 89.032 87.79 88.7793L87.6985 85.7807C79.2056 86.04 72.6477 87.5948 68.2614 90.6582L69.9791 93.1178ZM87.7937 88.7792L96.5297 88.4912L96.4308 85.4928L87.6948 85.7808L87.7937 88.7792ZM97.9803 86.992V83.92H94.9803V86.992H97.9803ZM97.9803 83.92C97.9803 79.4968 97.0371 75.9727 94.6976 73.8751L92.6949 76.1089C94.0674 77.3393 94.9803 79.7672 94.9803 83.92H97.9803ZM94.6976 73.8751C92.4804 71.8874 89.4513 70.996 85.8243 70.996V73.996C88.9812 73.996 91.2001 74.7686 92.6949 76.1089L94.6976 73.8751ZM85.8243 70.996C82.9787 70.996 80.2541 71.4369 77.6587 72.3248L78.6298 75.1632C80.8984 74.3871 83.2938 73.996 85.8243 73.996V70.996ZM77.6926 72.3136C75.197 73.1017 72.8567 74.0239 70.6738 75.0823L71.9827 77.7817C74.0238 76.7921 76.2275 75.9223 78.5959 75.1744L77.6926 72.3136ZM72.7166 75.864L70.1246 69.528L67.3479 70.6639L69.9399 76.9999L72.7166 75.864ZM69.4519 71.4143C71.5678 70.2656 74.1104 69.2806 77.0964 68.4718L76.3121 65.5762C73.1542 66.4314 70.3847 67.4944 68.0206 68.7777L69.4519 71.4143ZM77.1243 68.464C80.0544 67.6094 83.1127 67.18 86.3043 67.18V64.18C82.8398 64.18 79.4981 64.6466 76.2843 65.584L77.1243 68.464ZM88.7403 91.6372C82.3042 91.8946 77.4625 92.9211 74.5814 94.9895L76.3311 97.4265C78.442 95.9109 82.4963 94.8894 88.8602 94.6348L88.7403 91.6372ZM74.5665 95.0004C71.7162 97.1006 70.3083 100.096 70.3083 103.792H73.3083C73.3083 100.96 74.3323 98.8994 76.346 97.4156L74.5665 95.0004ZM70.3083 103.792C70.3083 106.977 71.277 109.599 73.4793 111.312L75.3212 108.944C74.0675 107.969 73.3083 106.367 73.3083 103.792H70.3083ZM73.5003 111.328C75.6066 112.908 78.2154 113.644 81.2163 113.644V110.644C78.7131 110.644 76.7779 110.036 75.3003 108.928L73.5003 111.328ZM81.2163 113.644C85.8548 113.644 89.8249 112.375 93.0169 109.751L91.1116 107.433C88.5436 109.545 85.2817 110.644 81.2163 110.644V113.644ZM93.032 109.738C96.3509 106.935 97.8843 102.737 97.8843 97.456H94.8843C94.8843 102.159 93.5376 105.385 91.0965 107.446L93.032 109.738ZM97.8843 97.456V92.848H94.8843V97.456H97.8843ZM96.3273 91.3491L88.7433 91.6371L88.8572 94.6349L96.4412 94.3469L96.3273 91.3491ZM128.789 87.184L127.293 87.069L127.291 87.0976L127.29 87.1264L128.789 87.184ZM128.597 91.504L127.099 91.4252L127.016 93.004H128.597V91.504ZM128.981 91.504V93.004H129.731L130.181 92.404L128.981 91.504ZM130.709 89.296L129.537 88.359L129.537 88.359L130.709 89.296ZM133.013 86.416L131.849 85.4701L131.841 85.479L133.013 86.416ZM135.125 83.92L134.034 82.8899L134.022 82.9031L134.01 82.9166L135.125 83.92ZM151.541 66.544V65.044H150.894L150.45 65.5139L151.541 66.544ZM161.429 66.544L162.518 67.5757L164.917 65.044H161.429V66.544ZM140.597 88.528L139.508 87.4962L138.634 88.4186L139.4 89.4324L140.597 88.528ZM162.869 118V119.5H165.882L164.065 117.096L162.869 118ZM152.693 118L151.489 118.895L151.939 119.5H152.693V118ZM134.837 94L136.04 93.1046L135.074 91.8065L133.853 92.8677L134.837 94ZM128.981 99.088L127.997 97.9557L127.481 98.4042V99.088H128.981ZM128.981 118V119.5H130.481V118H128.981ZM120.629 118H119.129V119.5H120.629V118ZM120.629 45.04V43.54H119.129V45.04H120.629ZM128.981 45.04H130.481V43.54H128.981V45.04ZM127.481 83.152C127.481 84.1214 127.42 85.4227 127.293 87.069L130.284 87.299C130.414 85.6173 130.481 84.2306 130.481 83.152H127.481ZM127.29 87.1264C127.226 88.7856 127.162 90.2182 127.099 91.4252L130.095 91.5828C130.159 90.3578 130.223 88.9103 130.288 87.2416L127.29 87.1264ZM128.597 93.004H128.981V90.004H128.597V93.004ZM130.181 92.404C130.55 91.9111 131.115 91.1897 131.88 90.233L129.537 88.359C128.767 89.3222 128.179 90.0729 127.781 90.604L130.181 92.404ZM131.88 90.233C132.648 89.273 133.416 88.313 134.184 87.353L131.841 85.479C131.073 86.439 130.305 87.399 129.537 88.359L131.88 90.233ZM134.177 87.3619C135 86.3484 135.687 85.5376 136.24 84.9234L134.01 82.9166C133.411 83.5824 132.689 84.4356 131.849 85.4701L134.177 87.3619ZM136.215 84.9501L152.631 67.5741L150.45 65.5139L134.034 82.8899L136.215 84.9501ZM151.541 68.044H161.429V65.044H151.541V68.044ZM160.34 65.5122L139.508 87.4962L141.686 89.5597L162.518 67.5757L160.34 65.5122ZM139.4 89.4324L161.672 118.904L164.065 117.096L141.793 87.6236L139.4 89.4324ZM162.869 116.5H152.693V119.5H162.869V116.5ZM153.896 117.105L136.04 93.1046L133.633 94.8954L151.489 118.895L153.896 117.105ZM133.853 92.8677L127.997 97.9557L129.965 100.22L135.821 95.1323L133.853 92.8677ZM127.481 99.088V118H130.481V99.088H127.481ZM128.981 116.5H120.629V119.5H128.981V116.5ZM122.129 118V45.04H119.129V118H122.129ZM120.629 46.54H128.981V43.54H120.629V46.54ZM127.481 45.04V83.152H130.481V45.04H127.481ZM203.11 68.464L202.327 69.7433L202.338 69.7502L203.11 68.464ZM210.406 76.624L209.05 77.2651L209.057 77.28L209.064 77.2948L210.406 76.624ZM212.998 93.904V95.404H214.498V93.904H212.998ZM177.766 93.904V92.404H176.233L176.266 93.937L177.766 93.904ZM182.182 107.248L181.076 108.262L181.087 108.274L181.099 108.285L182.182 107.248ZM202.822 110.896L203.159 112.358L203.173 112.355L203.186 112.351L202.822 110.896ZM210.694 108.208H212.194V105.933L210.103 106.829L210.694 108.208ZM210.694 115.6L211.297 116.973L212.194 116.58V115.6H210.694ZM202.918 118.096L202.624 116.625L202.606 116.629L202.589 116.633L202.918 118.096ZM180.838 115.984L180.131 117.307L180.14 117.312L180.838 115.984ZM172.102 107.152L170.769 107.84L170.776 107.853L170.783 107.866L172.102 107.152ZM171.814 78.16L170.46 77.5151L170.456 77.5239L170.451 77.5328L171.814 78.16ZM179.782 68.848L178.983 67.5786L178.972 67.5855L179.782 68.848ZM182.086 76.432L180.972 75.427L180.971 75.4286L182.086 76.432ZM177.958 87.184L176.465 87.0389L176.305 88.684H177.958V87.184ZM204.166 87.184V88.684H205.666V87.184H204.166ZM202.822 79.504L201.435 80.0751L201.435 80.0751L202.822 79.504ZM198.694 74.416L197.822 75.6366L197.847 75.6541L197.872 75.6707L198.694 74.416ZM191.782 67.084C195.977 67.084 199.47 67.9942 202.327 69.7433L203.893 67.1847C200.478 65.0938 196.419 64.084 191.782 64.084V67.084ZM202.338 69.7502C205.273 71.5108 207.507 74.0009 209.05 77.2651L211.762 75.9829C209.977 72.2071 207.347 69.2572 203.882 67.1778L202.338 69.7502ZM209.064 77.2948C210.669 80.5034 211.498 84.3288 211.498 88.816H214.498C214.498 83.9592 213.599 79.6566 211.748 75.9532L209.064 77.2948ZM211.498 88.816V93.904H214.498V88.816H211.498ZM212.998 92.404H177.766V95.404H212.998V92.404ZM176.266 93.937C176.399 99.9806 177.932 104.831 181.076 108.262L183.288 106.234C180.8 103.521 179.389 99.4754 179.266 93.871L176.266 93.937ZM181.099 108.285C184.324 111.654 188.753 113.26 194.182 113.26V110.26C189.371 110.26 185.8 108.858 183.265 106.211L181.099 108.285ZM194.182 113.26C197.53 113.26 200.527 112.965 203.159 112.358L202.485 109.434C200.125 109.979 197.362 110.26 194.182 110.26V113.26ZM203.186 112.351C205.831 111.69 208.531 110.767 211.285 109.587L210.103 106.829C207.481 107.953 204.933 108.822 202.458 109.441L203.186 112.351ZM209.194 108.208V115.6H212.194V108.208H209.194ZM210.091 114.227C207.557 115.339 205.068 116.136 202.624 116.625L203.212 119.567C205.888 119.032 208.583 118.165 211.297 116.973L210.091 114.227ZM202.589 116.633C200.166 117.178 197.242 117.46 193.798 117.46V120.46C197.394 120.46 200.55 120.166 203.247 119.559L202.589 116.633ZM193.798 117.46C189.143 117.46 185.068 116.512 181.536 114.656L180.14 117.312C184.16 119.424 188.725 120.46 193.798 120.46V117.46ZM181.545 114.661C178.107 112.823 175.401 110.098 173.421 106.438L170.783 107.866C173.027 112.014 176.145 115.176 180.131 117.307L181.545 114.661ZM173.435 106.464C171.523 102.759 170.53 98.1768 170.53 92.656H167.53C167.53 98.5272 168.585 103.609 170.769 107.84L173.435 106.464ZM170.53 92.656C170.53 87.1842 171.432 82.5771 173.177 78.7872L170.451 77.5328C168.484 81.8069 167.53 86.8637 167.53 92.656H170.53ZM173.168 78.8049C174.981 74.9973 177.46 72.1194 180.592 70.1105L178.972 67.5855C175.32 69.9286 172.487 73.2587 170.46 77.5151L173.168 78.8049ZM180.581 70.1173C183.772 68.1086 187.488 67.084 191.782 67.084V64.084C186.988 64.084 182.704 65.2353 178.983 67.5786L180.581 70.1173ZM191.686 70.996C187.296 70.996 183.666 72.442 180.972 75.4271L183.2 77.4369C185.242 75.174 188.012 73.996 191.686 73.996V70.996ZM180.971 75.4286C178.39 78.2969 176.934 82.2203 176.465 87.0389L179.451 87.3291C179.878 82.9317 181.174 79.6871 183.201 77.4354L180.971 75.4286ZM177.958 88.684H204.166V85.684H177.958V88.684ZM205.666 87.184C205.666 84.0915 205.196 81.3293 204.209 78.9329L201.435 80.0751C202.24 82.0307 202.666 84.3885 202.666 87.184H205.666ZM204.209 78.9329C203.205 76.4951 201.641 74.5533 199.516 73.1613L197.872 75.6707C199.459 76.7107 200.647 78.1608 201.435 80.0751L204.209 78.9329ZM199.566 73.1954C197.451 71.685 194.783 70.996 191.686 70.996V73.996C194.349 73.996 196.353 74.587 197.822 75.6366L199.566 73.1954ZM281.586 118V119.5H283.086V118H281.586ZM271.506 118L270.244 118.812L270.687 119.5H271.506V118ZM234.834 61.072L236.095 60.2597L235.652 59.572H234.834V61.072ZM234.45 61.072V59.572H232.864L232.952 61.1552L234.45 61.072ZM234.642 64.912L233.143 64.9801L233.145 65.014L233.148 65.0478L234.642 64.912ZM234.93 69.52L233.431 69.5776L233.431 69.58L234.93 69.52ZM235.122 74.512L233.623 74.5675L233.623 74.5675L235.122 74.512ZM235.218 118V119.5H236.718V118H235.218ZM227.25 118H225.75V119.5H227.25V118ZM227.25 49.456V47.956H225.75V49.456H227.25ZM237.234 49.456L238.494 48.6432L238.051 47.956H237.234V49.456ZM273.81 106.192L272.549 107.005L272.992 107.692H273.81V106.192ZM274.194 106.192V107.692H275.824L275.688 106.067L274.194 106.192ZM274.002 103.024L272.503 103.092L272.503 103.095L274.002 103.024ZM273.81 98.416L272.311 98.4715L272.311 98.4736L273.81 98.416ZM273.522 49.456V47.956H272.022V49.456H273.522ZM281.586 49.456H283.086V47.956H281.586V49.456ZM281.586 116.5H271.506V119.5H281.586V116.5ZM272.767 117.188L236.095 60.2597L233.572 61.8843L270.244 118.812L272.767 117.188ZM234.834 59.572H234.45V62.572H234.834V59.572ZM232.952 61.1552C233.015 62.3012 233.079 63.5761 233.143 64.9801L236.14 64.8439C236.076 63.4319 236.012 62.1468 235.947 60.9888L232.952 61.1552ZM233.148 65.0478C233.273 66.4257 233.367 67.9353 233.431 69.5776L236.428 69.4624C236.364 67.7767 236.266 66.2143 236.135 64.7762L233.148 65.0478ZM233.431 69.58C233.495 71.1784 233.559 72.8409 233.623 74.5675L236.62 74.4565C236.556 72.7271 236.492 71.0616 236.428 69.46L233.431 69.58ZM233.623 74.5675C233.686 76.277 233.718 77.9865 233.718 79.696H236.718C236.718 77.9495 236.685 76.203 236.62 74.4565L233.623 74.5675ZM233.718 79.696V118H236.718V79.696H233.718ZM235.218 116.5H227.25V119.5H235.218V116.5ZM228.75 118V49.456H225.75V118H228.75ZM227.25 50.956H237.234V47.956H227.25V50.956ZM235.973 50.2687L272.549 107.005L275.07 105.379L238.494 48.6432L235.973 50.2687ZM273.81 107.692H274.194V104.692H273.81V107.692ZM275.688 106.067C275.626 105.325 275.563 104.29 275.5 102.953L272.503 103.095C272.568 104.446 272.633 105.523 272.699 106.317L275.688 106.067ZM275.5 102.956C275.436 101.552 275.372 100.019 275.308 98.3584L272.311 98.4736C272.375 100.141 272.439 101.68 272.503 103.092L275.5 102.956ZM275.308 98.3605C275.245 96.6332 275.181 94.8738 275.117 93.0825L272.118 93.1895C272.182 94.9822 272.247 96.7428 272.311 98.4715L275.308 98.3605ZM275.117 93.0825C275.053 91.3054 275.022 89.6595 275.022 88.144H272.022C272.022 89.7005 272.054 91.3826 272.118 93.1895L275.117 93.0825ZM275.022 88.144V49.456H272.022V88.144H275.022ZM273.522 50.956H281.586V47.956H273.522V50.956ZM280.086 49.456V118H283.086V49.456H280.086ZM342.043 103.6L340.626 103.109L340.623 103.117L340.62 103.126L342.043 103.6ZM337.243 111.952L336.137 110.938L336.13 110.947L336.122 110.955L337.243 111.952ZM329.659 117.232L330.206 118.629L330.213 118.626L330.221 118.623L329.659 117.232ZM310.363 117.232L309.78 118.614L309.793 118.619L309.806 118.625L310.363 117.232ZM302.875 111.952L301.769 112.966L301.769 112.966L302.875 111.952ZM297.883 103.6L296.466 104.091L296.471 104.107L296.477 104.124L297.883 103.6ZM299.035 77.776L300.381 78.438L300.385 78.4293L299.035 77.776ZM307.291 68.752L308.035 70.0544L308.044 70.0494L308.053 70.0443L307.291 68.752ZM332.347 68.752L331.575 70.0382L331.589 70.0464L331.603 70.0544L332.347 68.752ZM340.699 77.776L339.357 78.4468L339.364 78.4599L339.371 78.4728L340.699 77.776ZM306.427 102.736L305.007 103.219L305.013 103.238L305.02 103.256L306.427 102.736ZM311.419 109.552L312.291 108.331L312.291 108.331L311.419 109.552ZM328.507 109.552L327.635 108.331L327.635 108.331L328.507 109.552ZM333.403 102.736L331.992 102.226L331.989 102.234L331.986 102.243L333.403 102.736ZM333.403 81.712L334.806 81.1819L334.806 81.1819L333.403 81.712ZM328.411 75.088L327.522 76.2965L327.542 76.3111L327.563 76.3251L328.411 75.088ZM308.443 77.872L309.68 78.7198L309.68 78.7198L308.443 77.872ZM342.271 92.176C342.271 96.3321 341.712 99.9692 340.626 103.109L343.46 104.091C344.678 100.575 345.271 96.5959 345.271 92.176H342.271ZM340.62 103.126C339.592 106.21 338.093 108.805 336.137 110.938L338.349 112.966C340.617 110.491 342.318 107.518 343.466 104.074L340.62 103.126ZM336.122 110.955C334.235 113.078 331.902 114.707 329.097 115.841L330.221 118.623C333.432 117.325 336.155 115.434 338.364 112.949L336.122 110.955ZM329.112 115.835C326.367 116.909 323.26 117.46 319.771 117.46V120.46C323.578 120.46 327.063 119.859 330.206 118.629L329.112 115.835ZM319.771 117.46C316.552 117.46 313.607 116.914 310.92 115.839L309.806 118.625C312.879 119.854 316.206 120.46 319.771 120.46V117.46ZM310.946 115.85C308.265 114.718 305.947 113.084 303.981 110.938L301.769 112.966C304.027 115.428 306.701 117.314 309.78 118.614L310.946 115.85ZM303.981 110.938C302.013 108.792 300.445 106.18 299.289 103.076L296.477 104.124C297.753 107.548 299.513 110.504 301.769 112.966L303.981 110.938ZM299.3 103.109C298.214 99.9692 297.655 96.3321 297.655 92.176H294.655C294.655 96.5959 295.248 100.575 296.466 104.091L299.3 103.109ZM297.655 92.176C297.655 86.6413 298.589 82.0825 300.381 78.438L297.689 77.114C295.641 81.2775 294.655 86.3187 294.655 92.176H297.655ZM300.385 78.4293C302.183 74.7144 304.732 71.9417 308.035 70.0544L306.547 67.4496C302.682 69.6582 299.727 72.9016 297.685 77.1227L300.385 78.4293ZM308.053 70.0443C311.366 68.0915 315.349 67.084 320.059 67.084V64.084C314.913 64.084 310.384 65.1885 306.529 67.4597L308.053 70.0443ZM320.059 67.084C324.497 67.084 328.319 68.0846 331.575 70.0382L333.119 67.4658C329.335 65.1954 324.965 64.084 320.059 64.084V67.084ZM331.603 70.0544C334.91 71.9443 337.495 74.7229 339.357 78.4468L342.041 77.1052C339.935 72.8931 336.952 69.6557 333.091 67.4496L331.603 70.0544ZM339.371 78.4728C341.278 82.1083 342.271 86.654 342.271 92.176H345.271C345.271 86.306 344.216 81.2517 342.027 77.0792L339.371 78.4728ZM303.391 92.176C303.391 96.3303 303.918 100.02 305.007 103.219L307.847 102.253C306.888 99.4357 306.391 96.0857 306.391 92.176H303.391ZM305.02 103.256C306.197 106.441 308.029 108.974 310.547 110.773L312.291 108.331C310.329 106.93 308.833 104.919 307.834 102.216L305.02 103.256ZM310.547 110.773C313.1 112.596 316.275 113.452 319.963 113.452V110.452C316.739 110.452 314.218 109.708 312.291 108.331L310.547 110.773ZM319.963 113.452C323.651 113.452 326.826 112.596 329.379 110.773L327.635 108.331C325.708 109.708 323.187 110.452 319.963 110.452V113.452ZM329.379 110.773C331.904 108.969 333.708 106.426 334.82 103.229L331.986 102.243C331.05 104.934 329.59 106.935 327.635 108.331L329.379 110.773ZM334.814 103.246C335.974 100.038 336.535 96.3386 336.535 92.176H333.535C333.535 96.0774 333.008 99.4177 331.992 102.226L334.814 103.246ZM336.535 92.176C336.535 87.9553 335.975 84.277 334.806 81.1819L332 82.2421C333.007 84.907 333.535 88.2047 333.535 92.176H336.535ZM334.806 81.1819C333.625 78.0548 331.785 75.5829 329.259 73.8509L327.563 76.3251C329.517 77.6651 331.005 79.6092 332 82.2421L334.806 81.1819ZM329.3 73.8795C326.798 72.0399 323.61 71.188 319.867 71.188V74.188C323.164 74.188 325.672 74.9361 327.522 76.2965L329.3 73.8795ZM319.867 71.188C314.265 71.188 309.924 73.0561 307.206 77.0242L309.68 78.7198C311.698 75.7759 314.973 74.188 319.867 74.188V71.188ZM307.206 77.0242C304.605 80.8191 303.391 85.9235 303.391 92.176H306.391C306.391 86.2685 307.545 81.8369 309.68 78.7198L307.206 77.0242ZM378.28 111.76L378.492 113.245L378.527 113.24L378.561 113.234L378.28 111.76ZM381.544 110.992H383.044V108.961L381.103 109.558L381.544 110.992ZM381.544 117.424L382.215 118.766L383.044 118.351V117.424H381.544ZM377.704 118.48L377.476 116.997L377.448 117.002L377.421 117.007L377.704 118.48ZM365.416 117.616L364.825 118.995L364.849 119.005L364.872 119.014L365.416 117.616ZM357.832 73.072H359.332V71.572H357.832V73.072ZM350.536 73.072H349.036V74.572H350.536V73.072ZM350.536 69.04L349.915 67.6744L349.036 68.0741V69.04H350.536ZM357.928 65.68L358.549 67.0455L359.164 66.766L359.362 66.1202L357.928 65.68ZM361.288 54.736V53.236H360.179L359.854 54.2958L361.288 54.736ZM366.28 54.736H367.78V53.236H366.28V54.736ZM366.28 66.544H364.78V68.044H366.28V66.544ZM381.16 66.544H382.66V65.044H381.16V66.544ZM381.16 73.072V74.572H382.66V73.072H381.16ZM366.28 73.072V71.572H364.78V73.072H366.28ZM368.488 109.84L367.405 110.878L367.427 110.901L367.45 110.923L368.488 109.84ZM374.344 113.548C375.699 113.548 377.082 113.446 378.492 113.245L378.068 110.275C376.79 110.458 375.549 110.548 374.344 110.548V113.548ZM378.561 113.234C379.932 112.972 381.08 112.704 381.985 112.426L381.103 109.558C380.344 109.792 379.316 110.036 377.999 110.286L378.561 113.234ZM380.044 110.992V117.424H383.044V110.992H380.044ZM380.873 116.082C380.179 116.429 379.076 116.751 377.476 116.997L377.932 119.963C379.66 119.697 381.117 119.315 382.215 118.766L380.873 116.082ZM377.421 117.007C375.841 117.311 374.336 117.46 372.904 117.46V120.46C374.544 120.46 376.239 120.289 377.987 119.953L377.421 117.007ZM372.904 117.46C370.386 117.46 368.076 117.041 365.96 116.218L364.872 119.014C367.364 119.983 370.046 120.46 372.904 120.46V117.46ZM366.007 116.237C364.084 115.413 362.488 114.006 361.224 111.938L358.664 113.502C360.216 116.042 362.268 117.899 364.825 118.995L366.007 116.237ZM361.224 111.938C360.018 109.964 359.332 107.045 359.332 103.024H356.332C356.332 107.323 357.054 110.868 358.664 113.502L361.224 111.938ZM359.332 103.024V73.072H356.332V103.024H359.332ZM357.832 71.572H350.536V74.572H357.832V71.572ZM352.036 73.072V69.04H349.036V73.072H352.036ZM351.157 70.4055L358.549 67.0455L357.307 64.3144L349.915 67.6744L351.157 70.4055ZM359.362 66.1202L362.722 55.1762L359.854 54.2958L356.494 65.2398L359.362 66.1202ZM361.288 56.236H366.28V53.236H361.288V56.236ZM364.78 54.736V66.544H367.78V54.736H364.78ZM366.28 68.044H381.16V65.044H366.28V68.044ZM379.66 66.544V73.072H382.66V66.544H379.66ZM381.16 71.572H366.28V74.572H381.16V71.572ZM364.78 73.072V102.832H367.78V73.072H364.78ZM364.78 102.832C364.78 106.173 365.562 108.955 367.405 110.878L369.571 108.802C368.47 107.653 367.78 105.763 367.78 102.832H364.78ZM367.45 110.923C369.298 112.694 371.637 113.548 374.344 113.548V110.548C372.315 110.548 370.75 109.93 369.526 108.757L367.45 110.923ZM423.048 68.464L422.264 69.7433L422.276 69.7502L423.048 68.464ZM430.344 76.624L428.987 77.2651L428.994 77.28L429.002 77.2948L430.344 76.624ZM432.936 93.904V95.404H434.436V93.904H432.936ZM397.704 93.904V92.404H396.17L396.204 93.937L397.704 93.904ZM402.12 107.248L401.014 108.262L401.025 108.274L401.036 108.285L402.12 107.248ZM422.76 110.896L423.097 112.358L423.11 112.355L423.123 112.351L422.76 110.896ZM430.632 108.208H432.132V105.933L430.041 106.829L430.632 108.208ZM430.632 115.6L431.234 116.973L432.132 116.58V115.6H430.632ZM422.856 118.096L422.561 116.625L422.544 116.629L422.526 116.633L422.856 118.096ZM400.776 115.984L400.068 117.307L400.078 117.312L400.776 115.984ZM392.04 107.152L390.707 107.84L390.713 107.853L390.72 107.866L392.04 107.152ZM391.752 78.16L390.397 77.5151L390.393 77.5239L390.389 77.5328L391.752 78.16ZM399.72 68.848L398.92 67.5786L398.91 67.5855L399.72 68.848ZM402.024 76.432L400.91 75.427L400.909 75.4286L402.024 76.432ZM397.896 87.184L396.403 87.0389L396.243 88.684H397.896V87.184ZM424.104 87.184V88.684H425.604V87.184H424.104ZM422.76 79.504L421.372 80.0751L421.372 80.0751L422.76 79.504ZM418.632 74.416L417.76 75.6366L417.784 75.6541L417.809 75.6707L418.632 74.416ZM411.72 67.084C415.915 67.084 419.408 67.9942 422.264 69.7433L423.831 67.1847C420.415 65.0938 416.356 64.084 411.72 64.084V67.084ZM422.276 69.7502C425.21 71.5108 427.444 74.0009 428.987 77.2651L431.7 75.9829C429.915 72.2071 427.285 69.2572 423.819 67.1778L422.276 69.7502ZM429.002 77.2948C430.606 80.5034 431.436 84.3288 431.436 88.816H434.436C434.436 83.9592 433.537 79.6566 431.685 75.9532L429.002 77.2948ZM431.436 88.816V93.904H434.436V88.816H431.436ZM432.936 92.404H397.704V95.404H432.936V92.404ZM396.204 93.937C396.337 99.9806 397.869 104.831 401.014 108.262L403.225 106.234C400.738 103.521 399.326 99.4754 399.203 93.871L396.204 93.937ZM401.036 108.285C404.262 111.654 408.691 113.26 414.12 113.26V110.26C409.308 110.26 405.737 108.858 403.203 106.211L401.036 108.285ZM414.12 113.26C417.468 113.26 420.465 112.965 423.097 112.358L422.422 109.434C420.062 109.979 417.299 110.26 414.12 110.26V113.26ZM423.123 112.351C425.769 111.69 428.469 110.767 431.222 109.587L430.041 106.829C427.418 107.953 424.87 108.822 422.396 109.441L423.123 112.351ZM429.132 108.208V115.6H432.132V108.208H429.132ZM430.029 114.227C427.494 115.339 425.005 116.136 422.561 116.625L423.15 119.567C425.826 119.032 428.521 118.165 431.234 116.973L430.029 114.227ZM422.526 116.633C420.104 117.178 417.18 117.46 413.736 117.46V120.46C417.331 120.46 420.487 120.166 423.185 119.559L422.526 116.633ZM413.736 117.46C409.08 117.46 405.005 116.512 401.473 114.656L400.078 117.312C404.098 119.424 408.663 120.46 413.736 120.46V117.46ZM401.483 114.661C398.044 112.823 395.339 110.098 393.359 106.438L390.72 107.866C392.964 112.014 396.083 115.176 400.068 117.307L401.483 114.661ZM393.372 106.464C391.46 102.759 390.468 98.1768 390.468 92.656H387.468C387.468 98.5272 388.523 103.609 390.707 107.84L393.372 106.464ZM390.468 92.656C390.468 87.1842 391.37 82.5771 393.114 78.7872L390.389 77.5328C388.421 81.8069 387.468 86.8637 387.468 92.656H390.468ZM393.106 78.8049C394.919 74.9973 397.398 72.1194 400.529 70.1105L398.91 67.5855C395.257 69.9286 392.424 73.2587 390.397 77.5151L393.106 78.8049ZM400.519 70.1173C403.709 68.1086 407.425 67.084 411.72 67.084V64.084C406.926 64.084 402.642 65.2353 398.92 67.5786L400.519 70.1173ZM411.624 70.996C407.233 70.996 403.604 72.442 400.91 75.4271L403.137 77.4369C405.179 75.174 407.95 73.996 411.624 73.996V70.996ZM400.909 75.4286C398.327 78.2969 396.871 82.2203 396.403 87.0389L399.388 87.3291C399.816 82.9317 401.112 79.6871 403.138 77.4354L400.909 75.4286ZM397.896 88.684H424.104V85.684H397.896V88.684ZM425.604 87.184C425.604 84.0915 425.133 81.3293 424.147 78.9329L421.372 80.0751C422.178 82.0307 422.604 84.3885 422.604 87.184H425.604ZM424.147 78.9329C423.143 76.4951 421.578 74.5533 419.454 73.1613L417.809 75.6707C419.397 76.7107 420.584 78.1608 421.372 80.0751L424.147 78.9329ZM419.503 73.1954C417.389 71.685 414.72 70.996 411.624 70.996V73.996C414.287 73.996 416.29 74.587 417.76 75.6366L419.503 73.1954Z" fill="white"/>
<path d="M456.434 112.774L502.671 16.728C498.497 13.7212 496.019 13.01 491.403 13.1266L446.586 110.369L442.396 129.207L456.434 112.774Z" fill="white" stroke="white"/>
</g>
<defs>
<clipPath id="clip0_1_2">
<rect width="504" height="144" fill="white"/>
</clipPath>
</defs>
</svg>
